<!--?xml version="1.0" encoding="utf-8"?-->
<!-- Generator: Adobe Illustrator 18.1.1, SVG Export Plug-In . SVG Version: 6.00 Build 0)  -->

<svg version="1.1" id="_x31_0" xmlns="http://www.w3.org/2000/svg" xmlns:xlink="http://www.w3.org/1999/xlink" x="0px" y="0px" viewBox="0 0 512 512" style="width: 256px; height: 256px; opacity: 1;" xml:space="preserve">
<style type="text/css">
	.st0{fill:#374149;}
</style>
<g>
	<path class="st0" d="M512,207.611c0-5.414-2.195-10.348-5.762-13.883c-3.566-3.566-8.473-5.766-13.887-5.766H54.5
		c-5.414,0-9.813,0.457-13.886,5.766C31.016,206.165,0,316.634,0,316.634v97.813v0.301l0,0v0.156h53.266l5.211,0.015
		c-0.07,0.734-0.11,1.477-0.11,2.231c0,12.335,10,22.339,22.336,22.339c12.34,0,22.34-10.004,22.34-22.339
		c0-0.758-0.039-1.508-0.114-2.246h16.813l1.539,0.015c-0.074,0.734-0.114,1.477-0.114,2.231c0,12.335,10,22.339,22.34,22.339
		c12.336,0,22.336-10.004,22.336-22.339c0-0.758-0.039-1.508-0.114-2.246h166.68l16.664,0.015c-0.074,0.734-0.114,1.477-0.114,2.231
		c0,12.335,10,22.339,22.336,22.339c12.34,0,22.34-10.004,22.34-22.339c0-0.758-0.039-1.508-0.114-2.246h16.813l1.539,0.015
		c-0.074,0.734-0.114,1.477-0.114,2.231c0,12.335,10,22.339,22.34,22.339c12.336,0,22.336-10.004,22.336-22.339
		c0-0.758-0.039-1.508-0.114-2.246h55.348h0.168l0,0H512V207.611z M474.473,225.489v91.598h-48.25v-91.598H474.473z
		 M407.457,225.489v91.598h-85.781v-91.598H407.457z M302.914,317.087h-85.782v-91.598h85.782v91.481V317.087z M198.367,225.489
		v91.598h-85.782v-91.598H198.367z M38.883,317.044c10.558-36.95,21.812-73.09,28.507-91.555h26.434v91.481v0.117H50.45
		L38.883,317.044z" style="fill: rgb(137, 46, 32);"></path>
	<path class="st0" d="M177.129,177.443c0.07,0,0.137-0.039,0.207-0.043c0.07,0.004,0.137,0.043,0.207,0.043
		c2.746,0,5.488-1.047,7.582-3.141l49.126-49.125l0.105-0.106l0,0l0.114-0.114l-49.344-49.343c-2.148-2.149-4.976-3.157-7.789-3.102
		c-2.817-0.055-5.641,0.953-7.789,3.102l-49.344,49.343l49.344,49.344C171.641,176.395,174.383,177.443,177.129,177.443z
		 M150.531,124.958l26.805-26.805l26.805,26.805l-26.805,26.805L150.531,124.958z" style="fill: rgb(137, 46, 32);"></path>
	<path class="st0" d="M334.461,177.443c0.07,0,0.137-0.039,0.207-0.043c0.07,0.004,0.137,0.043,0.207,0.043
		c2.746,0,5.488-1.047,7.582-3.141l49.344-49.344l-49.344-49.343c-2.148-2.149-4.973-3.157-7.789-3.102
		c-2.813-0.055-5.641,0.953-7.789,3.102l-49.344,49.343l49.344,49.344C328.973,176.395,331.715,177.443,334.461,177.443z
		 M361.473,124.958l-26.805,26.805l-26.805-26.805l26.805-26.805l26.801,26.801L361.473,124.958z" style="fill: rgb(137, 46, 32);"></path>
</g>
</svg>
