<!--?xml version="1.0" encoding="utf-8"?-->
<!-- Generator: Adobe Illustrator 22.1.0, SVG Export Plug-In . SVG Version: 6.00 Build 0)  -->
<svg version="1.1" id="_x32_" xmlns="http://www.w3.org/2000/svg" xmlns:xlink="http://www.w3.org/1999/xlink" x="0px" y="0px" viewBox="0 0 800 347.755" style="enable-background:new 0 0 800 347.755;" xml:space="preserve">
<style type="text/css">
	.st0{fill:#040000;}
</style>
<g>
	<path class="st0" d="M442.755,196.704c-37.406,2.879-278.736,9.919-307.379,6.608c-28.642-3.304-94.756-31.952-105.769-45.169
		c-19.825,16.527-49.581,88.142-2.203,125.601c47.378,37.454,284.13,21.118,414.256,14.318
		c147.634-7.71,295.101-30.259,329.418-63.145c30.24-28.977,36.543-84.418,11.02-109.825c-2.203,1.101-32.444,31.704-86.621,45.57
		C638.27,185.288,557.341,187.893,442.755,196.704z"></path>
	<path class="st0" d="M207.422,97.587l109.23,246.47c0,0,1.095,3.016-5.938,2.819c-11.54-21.172-107.409-242.923-109.852-246.367
		C198.42,97.058,204.788,92.895,207.422,97.587z"></path>
	<path class="st0" d="M690.138,129.716c0-1.559-1.168-45.783-1.168-45.783c0-2.332,8.536-9.706,5.818-13.582
		c-2.711-3.879-0.771-11.244-6.979-17.85c-6.214-6.593-30.265-31.811-31.815-33.748c-1.55-1.94-4.267-8.922-5.04-11.64
		c-0.778-2.718-5.429-5.819-8.153-6.207c-2.712-0.389-4.657,2.322-4.657,2.322s-2.711,3.106-2.322,4.659
		c-1.167,1.554-0.778,5.043-0.778,5.043s1.161,1.94,1.55,3.104c0.389,1.161,4.261,5.043,7.368,6.207
		c3.106,1.164,4.663,3.882,4.663,3.882s1.311,2.056,3.274,5.076c-3.484-2.631-8.219-4.294-14.096-1.686
		c-10.877,2.203-13.553,12.915-12.607,16.384c0.946,3.463,1.257,7.249,1.257,7.249l0.952-0.946c0,0,0.15,3.149-0.162,4.25
		c0.474,0.476,1.419-3.46,1.419-3.46c0.629,0.943,2.993,10.55,4.256,13.073c1.257,2.517,6.452,6.773,7.554,7.722
		c0.18,0.15,0.335,0.425,0.491,0.665c-0.736,0.323-1.263,0.553-1.263,0.553s0.772,5.821-0.389,6.986
		c-1.168,1.164-10.086,4.659-11.637,5.429c-1.55,0.779-1.55,1.553-1.945,3.107c-0.389,1.553-6.985,17.072-7.758,18.619
		c-0.772,1.553-1.939,3.882-0.389,4.271c2.527,0.631,3.49,0.775,3.49,0.775s-2.712,16.683-2.712,18.236
		c0,1.553-5.052,3.879-8.536,6.213c-3.496,2.328-7.368,5.034-9.697,5.034c-2.328,0-4.657-3.101-6.602-3.487
		c-1.94-0.389-5.429-3.101-4.262,1.94c-2.718,1.164-4.274,1.548-4.657,5.043c-1.94,1.939-1.556,3.882-0.389,5.045
		c-1.94,1.548-2.712,3.49-1.161,4.265c0,1.161,5.77,3.664,8.925,3.101c6.59-1.159,11.247-4.655,13.187-5.037
		c1.939-0.392,18.807-7.991,20.956-9.703c1.94-1.55,5.429-3.49,5.812-8.918c1.167,5.818,3.49,14.35,3.49,15.904
		c0,1.553,0.389,5.043,0.778,6.207c0.389,1.17-1.94,3.882-1.94,3.882s-2.328,2.718-1.161,3.49c1.161,0.775-3.107,2.711-2.328,4.271
		c0.777,1.548-0.389,4.651-5.435,8.922c-5.04,4.265-19.783,16.29-24.051,20.169c-4.269,3.884-7.764,10.475-5.429,13.588
		c2.329,3.101,64.013-0.784,70.992-4.657c6.986-3.879,25.608-31.04,25.608-37.639c2.717-0.383,0.777-2.714,0.389-5.037
		C692.46,162.689,690.138,131.263,690.138,129.716z M668.409,59.485c0.389,1.942-2.328,6.605-3.879,6.988
		c-1.55,0.389-3.448,4.858-4.268,1.942c-0.161-0.577-0.862-0.951-1.598-1.068c0.006-0.922,0.09-1.616,0.09-2.224
		c0-1.104,1.107-3.151,1.107-7.404c0-4.256,2.209-6.303,1.102-8.67c-0.653-1.392-1.03-4.038-1.419-6.298
		c4.25,6.279,8.554,12.328,10.416,14.022C669.959,56.773,668.02,57.551,668.409,59.485z"></path>
	<path class="st0" d="M640.473,9.817l-86.339,229.417c0,0,1.885,5.045,5.046,2.519c3.142-2.519,83.191-228.152,84.448-231.307
		C644.884,7.294,642.999,5.405,640.473,9.817z"></path>
	<path class="st0" d="M314.556,149.673l3.041,0.496c0,0-1.526-1.553-2.089-3.262c-0.425-1.526,0.455-3.385-0.952-5.648
		c1.497,1.189,2.772,1.063,2.772,1.063c-3.436-4.091-0.288-12.199,1.203-22.187c1.49-9.99,3.208-17.03-2.419-25.104
		c-5.633-8.075-14.881-10.769-17.73-10.7c-3.209,0.081-11.685-3.858-23.29,2.415c-11.607,6.27-11.296,17.362-10.284,20.298
		c1.006,2.93,2.497,4.008,2.413,4.95c0,0,0.467,1.936,0.401,2.718c-0.065,0.79-0.316,5.513-1.406,7.153
		c-1.096,1.643-2.154,2.978-0.97,3.87c1.191,0.895,3.442,0.458,3.699,1.108c0.264,0.655-0.466,1.699,0.121,2.226
		c0.592,0.521,0.412,0.82,0.197,1.437c-0.21,0.616-0.108,1.257,0.323,1.766c0.431,0.512,1.066,2.304,0.814,3.394
		c-0.257,1.081,1.837,0.683,4.484,1.179c3.968,0.73,6.895,0.949,9.14,4.025c1.933,2.664,0.641,5.675-1.545,8.761
		c-6.422-1.601-18.741-4.504-18.956-3.232c-0.246,1.485-9.895-0.99-12.367-2.475c-2.478-1.485-5.447-2.47-5.447-2.47
		s-6.435-9.158-10.643-12.869c-4.208-3.717-16.575-17.322-17.82-20.789c-1.233-3.463-6.429-11.873-7.171-13.363
		c-0.742-1.479-2.968-4.45-5.196-5.193c-2.227-0.743-8.164,1.238-9.403,1.481c-1.239,0.251-1.981,2.72-0.988,3.96
		c-0.994,1.242,0.491,4.46,1.485,4.953c-0.497,1.239,0,3.46,0.988,3.709c0.496,1.485,2.73,3.965,3.711,4.208
		c0.994,0.245,4.453,0.494,4.453,1.236s5.447,8.413,7.429,12.621c1.975,4.209,11.128,23.01,13.115,25.485
		c1.976,2.476,9.153,9.652,9.894,10.394c0.742,0.742,2.969,3.708,5.196,4.208c2.221,0.491,13.606,3.459,13.606,3.459l0.503,3.96
		l13.354,1.736c0,0,1.802,0.787,3.765,1.637c-0.102,0.836-0.174,1.604-0.198,2.227c-0.114,3.155-7.266,12.81-3.741,23.225
		c0.334,1,1.047,1.855,2.07,2.586c0.234,9.614,0.952,24.692,3.179,26.385c3.305,2.497,40.231,0.623,41.548-3.124
		c0.814-2.316,1.634-14.654,2.137-23.74c0.88-0.491,1.437-1.005,1.599-1.532C320.326,192.771,323.93,159.253,314.556,149.673z"></path>
</g>
</svg>
