<!--?xml version="1.0" encoding="utf-8"?-->
<!-- Generator: Adobe Illustrator 18.1.1, SVG Export Plug-In . SVG Version: 6.00 Build 0)  -->

<svg version="1.1" id="_x31_0" xmlns="http://www.w3.org/2000/svg" xmlns:xlink="http://www.w3.org/1999/xlink" x="0px" y="0px" viewBox="0 0 512 512" style="width: 256px; height: 256px; opacity: 1;" xml:space="preserve">
<style type="text/css">
	.st0{fill:#374149;}
</style>
<g>
	<polygon class="st0" points="209.918,180.641 184.215,206.343 165.68,224.718 165.84,224.718 165.68,224.878 346.398,224.878 
		302.078,180.641 	" style="fill: rgb(171, 152, 58);"></polygon>
	<polygon class="st0" points="241.492,149.066 231.117,159.277 231.278,159.277 231.117,159.442 280.879,159.442 256,134.558 	" style="fill: rgb(171, 152, 58);"></polygon>
	<polygon class="st0" points="411.84,290.32 367.598,246.078 144.481,246.078 118.738,271.774 100.156,290.16 100.32,290.16 
		100.16,290.32 	" style="fill: rgb(171, 152, 58);"></polygon>
	<polygon class="st0" points="94,311.519 94,355.332 94,355.598 94,355.598 94,355.758 224.718,355.758 225.117,355.762 
		225.117,355.758 225.278,355.758 225.278,335.918 286.691,335.918 286.718,335.918 286.718,355.758 417.918,355.758 
		417.918,311.519 	" style="fill: rgb(171, 152, 58);"></polygon>
	<polygon class="st0" points="225.278,376.878 94.558,376.878 94.156,376.878 94.156,376.878 94,376.878 94,420.77 94,421.039 
		94,421.039 94,421.199 225.278,421.199 225.278,377.172 225.282,377.039 225.278,377.039 	" style="fill: rgb(171, 152, 58);"></polygon>
	<polygon class="st0" points="286.879,376.878 286.879,376.878 286.718,376.878 286.718,421.199 417.918,421.199 417.918,376.878 
		287.278,376.878 	" style="fill: rgb(171, 152, 58);"></polygon>
	<polygon class="st0" points="225.278,442.48 225.278,442.32 94.957,442.32 94.156,442.316 94.156,442.32 94,442.32 94,486.21 
		94,486.48 94,486.48 94,486.641 225.278,486.641 225.278,442.613 225.282,442.48 	" style="fill: rgb(171, 152, 58);"></polygon>
	<polygon class="st0" points="286.879,442.316 286.879,442.32 286.718,442.32 286.718,486.641 417.918,486.641 417.918,442.32 
		287.68,442.32 	" style="fill: rgb(171, 152, 58);"></polygon>
	<polygon class="st0" points="0,311.519 0,485.41 0,486.48 0,486.48 0,486.641 66.641,486.641 66.641,311.519 	" style="fill: rgb(171, 152, 58);"></polygon>
	<polygon class="st0" points="176,180.641 197.117,159.442 241.359,115.199 245.473,111.164 245.484,111.152 245.484,111.152 
		245.598,111.039 208.718,74.16 207.117,72.641 164.641,115.199 120.32,159.442 99.199,180.641 89.117,190.641 0,279.84 0,290.094 
		0,290.16 0,290.16 0,290.32 66.641,290.32 66.641,289.918 131.68,224.878 	" style="fill: rgb(171, 152, 58);"></polygon>
	<polygon class="st0" points="439.68,207.442 439.68,97.519 384,97.519 384,129.207 383.886,151.726 304.797,72.641 299.598,67.442 
		257.734,25.574 257.633,25.473 257.633,25.473 257.519,25.359 256,26.878 219.199,63.758 256,100.558 261.199,105.84 
		266.398,111.039 270.641,115.199 380.32,224.878 401.438,246.078 422.879,267.442 436.211,280.77 445.438,290.156 445.438,290.32 
		512,290.32 512,279.84 	" style="fill: rgb(171, 152, 58);"></polygon>
	<rect x="445.438" y="311.519" class="st0" width="66.562" height="175.122" style="fill: rgb(171, 152, 58);"></rect>
	<polygon class="st0" points="369.172,74.546 369.172,74.707 454.504,74.707 454.504,38.976 454.508,38.867 454.504,38.867 
		454.504,38.707 369.851,38.707 369.332,38.707 369.332,38.707 369.172,38.707 369.172,74.438 369.172,74.546 	" style="fill: rgb(171, 152, 58);"></polygon>
</g>
</svg>
