<!--?xml version="1.0" encoding="utf-8"?-->
<!-- Generator: Adobe Illustrator 18.1.1, SVG Export Plug-In . SVG Version: 6.00 Build 0)  -->

<svg version="1.1" id="_x31_0" xmlns="http://www.w3.org/2000/svg" xmlns:xlink="http://www.w3.org/1999/xlink" x="0px" y="0px" viewBox="0 0 512 512" style="width: 256px; height: 256px; opacity: 1;" xml:space="preserve">
<style type="text/css">
	.st0{fill:#374149;}
</style>
<g>
	<path class="st0" d="M256,0C114.641,0,0,114.562,0,256c0,36.961,7.84,72.156,22,103.922c3.359,7.602,7.039,14.962,11.121,22.078
		c14,24.718,32,46.883,53.118,65.602c0.48,0.398,0.961,0.875,1.519,1.282C132.718,488.242,191.598,512,256,512
		c64.398,0,123.359-23.758,168.238-63.117c0.562-0.406,1.039-0.883,1.519-1.282c21.199-18.805,39.199-40.961,53.199-65.844
		c4.082-7.195,7.844-14.554,11.203-22.156C504.16,327.922,512,292.797,512,256C512,114.562,397.438,0,256,0z M67.336,291.43
		C65.117,279.965,64,268.102,64,256c0-105.922,86.16-192,192-192c105.918,0,192,86.078,192,192c0,11.047-1.058,21.855-2.894,32.375
		c-0.168,0.867-0.297,1.742-0.481,2.606l-88.066-132.738c-6.078-9.203-19.602-9.203-25.679,0l-35.383,50.672l-12.973,18.472
		L212.238,122c-7.52-11.359-24.16-11.359-31.758,0l-66.168,99.199L67.336,291.43z M70.782,343.805l1.297-2.047l7.121-10.961
		l106.641-164c2.398-3.515,6.48-5.68,10.641-5.68c4.32,0,8.398,2.165,10.64,5.68l50.598,77.722l20.305,31.313l0.039-0.058
		l0.098,0.148l55.278-84.882c2.32-3.68,6.32-5.836,10.641-5.836c2.082,0,4.242,0.633,6.082,1.594
		c1.758,0.961,3.438,2.32,4.558,4.242l82.801,127.438l8.078,12.484l8.32,12.641c0.078,0.078,0.141,0.187,0.203,0.282l0.024,0.113
		l-10.305-9.676l-9.039-8.484l-58.16-54.477l-4.871,8.629l-1.485,2.535l-20.098-22.042l-1.273-1.41l-0.008,0.008l-0.106-0.118
		l-13.062,13.606l-4.086,4.187l-6.87-13.175l-1.637-3.219l-0.031,0.027l-0.074-0.144l-34.558,30.476l17.254,27.059l16.328,25.886
		l-85.582-85.187l-4.516-5.094l-0.957-1.133l-0.02,0.031l-0.109-0.126l-12.914,17.832l-5.199,7.07l-12.207-21.042l-6.734-11.79
		l-0.05,0.098l-0.094-0.168l-11.73,23.758l-7.286,14.531l-10.031-21.246l-0.008-0.019l0,0l-0.066-0.141l-13.84,6.562l-69.918,66.797
		l-8.402,8l-0.946,0.906L70.782,343.805z" style="fill: rgb(82, 141, 74);"></path>
</g>
</svg>
